<svg width="646" height="109" viewBox="0 0 646 109" fill="none" xmlns="http://www.w3.org/2000/svg">
<path d="M35.5 1.00557C26.6 3.00557 16.3 9.10558 11.7 15.3056C4.4 24.9056 0 38.9056 0 52.9056C0 87.6056 19.9 108.706 50.5 106.506C61.3 105.706 67.7 103.906 74.1 99.8056C82.4 94.5056 88.7 85.5056 90.9 76.0056L91.8 71.9056H83.5H75.3L73.4 76.1056C70.7 82.2056 64.4 88.2056 59 89.8056C36.9 96.4056 21.4 85.6056 17.8 61.1056C15.1 42.7056 21.6 25.4056 33.8 18.1056C38 15.7056 39.5 15.4056 47.5 15.4056C54.8 15.4056 57.3 15.8056 60.5 17.6056C65.9 20.5056 70.5 25.4056 73 31.1056L75.1 35.9056H83.5H91.8L90.5 30.9056C85.4 11.5056 68.8 -0.294432 47 0.00557137C42.9 0.10557 37.7 0.505571 35.5 1.00557Z" fill="#F98011"/>
<path d="M105.2 43.1056L105.5 82.4056L108.3 87.9056C115.6 102.106 128.2 108.906 147.4 108.906C156.5 108.906 165 106.706 171.8 102.606C178.1 98.8056 182 94.3056 185.8 86.2056L188.5 80.4056L188.8 42.1056L189.1 3.90558H180.6H172.1L171.8 40.6056C171.5 76.3056 171.4 77.5056 169.3 81.5056C166.5 86.8056 161 91.5056 156.3 92.8056C154.2 93.4056 149.5 93.9056 145.9 93.9056C136.8 93.9056 129.8 90.3056 125.5 83.4056L122.5 78.6056L122.2 41.2056L121.9 3.90558H113.4H104.9L105.2 43.1056Z" fill="#F98011"/>
<path d="M204 55.8056V107.906H212.5H221V87.9056V67.8056L231.6 68.1056L242.2 68.4056L252.7 88.1056L263.2 107.906H272.6C277.8 107.906 282 107.506 282 107.006C282 106.606 277.3 97.6056 271.5 87.0056C265.7 76.5056 260.7 67.3056 260.4 66.5056C260.1 65.7056 261.1 64.7056 262.9 63.9056C266.8 62.3056 274.4 54.2056 276.6 49.3056C277.8 46.5056 278.4 42.6056 278.4 35.9056C278.5 28.0056 278.1 25.6056 276.2 21.4056C273.1 14.6056 269 10.6056 261.6 7.20557L255.5 4.40558L229.8 4.10558L204 3.80558V55.8056ZM249.1 19.1056C254.5 20.9056 258.1 23.9056 260.1 28.3056C264.1 37.2056 261.1 47.5056 253.1 51.6056C249.1 53.7056 247.3 53.9056 234.8 53.9056H221V35.9056V17.9056H233.4C240.1 17.9056 247.2 18.4056 249.1 19.1056Z" fill="#F98011"/>
<path d="M295 55.9056V107.906H303.5H312V87.9056V67.9056H322.8H333.5L344 87.9056L354.5 107.906H364.3H374L372.1 104.206C371.1 102.106 365.9 92.5056 360.6 82.9056L351 65.4056L354.6 63.6056C364.2 58.7056 370 48.1056 370 35.5056C370 25.3056 367.8 19.6056 361.5 13.2056C357.3 9.10558 355 7.70557 349.5 6.00558C343.5 4.10558 340.3 3.90558 318.9 3.90558H295V55.9056ZM340.2 18.9056C351.3 22.0056 356.2 34.2056 350.8 44.9056C346.9 52.5056 343.2 53.9056 326.3 53.9056H312V35.9056V17.9056H324.3C331 17.9056 338.2 18.4056 340.2 18.9056Z" fill="#F98011"/>
<path d="M389 55.9056V107.906H422H455V100.406V92.9056H430.5H406V77.4056V61.9056H429H452V54.9056V47.9056H429H406V33.4056V18.9056H430.5H455V11.4056V3.90558H422H389V55.9056Z" fill="#F98011"/>
<path d="M468.2 55.6056L468.5 107.406L476.7 107.706L485 108.006L485.2 70.6056L485.5 33.2056L511.8 70.6056L538.1 107.906H545.6H553V55.9056V3.90559H545H537L536.8 41.3056L536.5 78.8056L510.4 41.6056L484.3 4.40559L476.1 4.10559L468 3.80558L468.2 55.6056Z" fill="#F98011"/>
<path d="M566 11.4056V18.9056H582H598V63.4056V108.006L606.3 107.706L614.5 107.406L614.8 63.1056L615 18.9056H630.5H646V11.4056V3.90558H606H566V11.4056Z" fill="#F98011"/>
</svg>
