<?xml version="1.0" standalone="no"?>
<!DOCTYPE svg PUBLIC "-//W3C//DTD SVG 20010904//EN"
 "http://www.w3.org/TR/2001/REC-SVG-20010904/DTD/svg10.dtd">
<svg version="1.0" xmlns="http://www.w3.org/2000/svg"
 width="656.000000pt" height="113.000000pt" viewBox="0 0 656.000000 113.000000"
 preserveAspectRatio="xMidYMid meet">
<metadata>
Created by potrace 1.16, written by Peter Selinger 2001-2019
</metadata>
<g transform="translate(0.000000,113.000000) scale(0.100000,-0.100000)"
fill="#000000" stroke="none">
<path d="M405 1099 c-89 -20 -192 -81 -238 -143 -73 -96 -117 -236 -117 -376
0 -347 199 -558 505 -536 108 8 172 26 236 67 83 53 146 143 168 238 l9 41
-83 0 -82 0 -19 -42 c-27 -61 -90 -121 -144 -137 -221 -66 -376 42 -412 287
-27 184 38 357 160 430 42 24 57 27 137 27 73 0 98 -4 130 -22 54 -29 100 -78
125 -135 l21 -48 84 0 83 0 -13 50 c-51 194 -217 312 -435 309 -41 -1 -93 -5
-115 -10z"/>
<path d="M1102 678 l3 -393 28 -55 c73 -142 199 -210 391 -210 91 0 176 22
244 63 63 38 102 83 140 164 l27 58 3 383 3 382 -85 0 -85 0 -3 -367 c-3 -357
-4 -369 -25 -409 -28 -53 -83 -100 -130 -113 -21 -6 -68 -11 -104 -11 -91 0
-161 36 -204 105 l-30 48 -3 374 -3 373 -85 0 -85 0 3 -392z"/>
<path d="M2090 551 l0 -521 85 0 85 0 0 200 0 201 106 -3 106 -3 105 -197 105
-198 94 0 c52 0 94 4 94 9 0 4 -47 94 -105 200 -58 105 -108 197 -111 205 -3
8 7 18 25 26 39 16 115 97 137 146 12 28 18 67 18 134 1 79 -3 103 -22 145
-31 68 -72 108 -146 142 l-61 28 -257 3 -258 3 0 -520z m451 367 c54 -18 90
-48 110 -92 40 -89 10 -192 -70 -233 -40 -21 -58 -23 -183 -23 l-138 0 0 180
0 180 124 0 c67 0 138 -5 157 -12z"/>
<path d="M3000 550 l0 -520 85 0 85 0 0 200 0 200 108 0 107 0 105 -200 105
-200 98 0 97 0 -19 37 c-10 21 -62 117 -115 213 l-96 175 36 18 c96 49 154
155 154 281 0 102 -22 159 -85 223 -42 41 -65 55 -120 72 -60 19 -92 21 -306
21 l-239 0 0 -520z m452 370 c111 -31 160 -153 106 -260 -39 -76 -76 -90 -245
-90 l-143 0 0 180 0 180 123 0 c67 0 139 -5 159 -10z"/>
<path d="M3940 550 l0 -520 330 0 330 0 0 75 0 75 -245 0 -245 0 0 155 0 155
230 0 230 0 0 70 0 70 -230 0 -230 0 0 145 0 145 245 0 245 0 0 75 0 75 -330
0 -330 0 0 -520z"/>
<path d="M4732 553 l3 -518 82 -3 83 -3 2 374 3 374 263 -374 263 -373 75 0
74 0 0 520 0 520 -80 0 -80 0 -2 -374 -3 -375 -261 372 -261 372 -82 3 -81 3
2 -518z"/>
<path d="M5710 995 l0 -75 160 0 160 0 0 -445 0 -446 83 3 82 3 3 443 2 442
155 0 155 0 0 75 0 75 -400 0 -400 0 0 -75z"/>
</g>
</svg>
